<?xml version="1.0" encoding="UTF-8" standalone="no"?>
<!-- Created with Inkscape (http://www.inkscape.org/) -->

<svg
   version="1.1"
   id="svg104"
   width="120"
   height="120"
   viewBox="0 0 120 120"
   sodipodi:docname="butterfly120.svg"
   inkscape:version="1.2.2 (b0a8486541, 2022-12-01)"
   inkscape:export-filename="butterfly180.png"
   inkscape:export-xdpi="144"
   inkscape:export-ydpi="144"
   xmlns:inkscape="http://www.inkscape.org/namespaces/inkscape"
   xmlns:sodipodi="http://sodipodi.sourceforge.net/DTD/sodipodi-0.dtd"
   xmlns="http://www.w3.org/2000/svg"
   xmlns:svg="http://www.w3.org/2000/svg">
  <defs
     id="defs108">
    <filter
       style="color-interpolation-filters:sRGB"
       inkscape:label="Duochrome"
       id="filter657"
       x="0"
       y="0"
       width="1"
       height="1">
      <feColorMatrix
         type="luminanceToAlpha"
         result="colormatrix1"
         id="feColorMatrix637" />
      <feFlood
         flood-opacity="1"
         flood-color="rgb(0,0,0)"
         result="flood1"
         id="feFlood639" />
      <feComposite
         in2="colormatrix1"
         operator="out"
         result="composite1"
         id="feComposite641" />
      <feFlood
         flood-opacity="1"
         flood-color="rgb(0,0,0)"
         result="flood2"
         id="feFlood643" />
      <feComposite
         in2="colormatrix1"
         result="composite2"
         operator="in"
         id="feComposite645" />
      <feComposite
         in="composite2"
         in2="composite1"
         k2="1"
         k3="1"
         operator="arithmetic"
         result="composite3"
         id="feComposite647"
         k1="0"
         k4="0" />
      <feColorMatrix
         in="composite3"
         type="matrix"
         values="2 -1 0 0 0 0 2 -1 0 0 -1 0 2 0 0 0 0 0 1 0 "
         result="colormatrix2"
         id="feColorMatrix649" />
      <feComposite
         in="colormatrix2"
         in2="composite3"
         operator="arithmetic"
         k2="0"
         result="composite4"
         id="feComposite651"
         k1="0"
         k3="0"
         k4="0" />
      <feBlend
         in="composite4"
         in2="composite3"
         mode="normal"
         result="blend"
         id="feBlend653" />
      <feComposite
         in2="SourceGraphic"
         operator="in"
         id="feComposite655" />
    </filter>
  </defs>
  <sodipodi:namedview
     id="namedview106"
     pagecolor="#505050"
     bordercolor="#eeeeee"
     borderopacity="1"
     inkscape:showpageshadow="0"
     inkscape:pageopacity="0"
     inkscape:pagecheckerboard="0"
     inkscape:deskcolor="#505050"
     showgrid="false"
     inkscape:zoom="4.2875"
     inkscape:cx="65.306122"
     inkscape:cy="76.96793"
     inkscape:window-width="1845"
     inkscape:window-height="1011"
     inkscape:window-x="75"
     inkscape:window-y="32"
     inkscape:window-maximized="1"
     inkscape:current-layer="g110" />
  <g
     inkscape:groupmode="layer"
     inkscape:label="Image"
     id="g110">
    <path
       style="fill:#ffffff;stroke:#000000;stroke-width:2.49972;stroke-dasharray:none"
       d="m 38.189519,118.47701 c -0.702747,-0.20566 -1.23004,-0.22418 -1.612766,-0.0567 -0.865605,0.37882 -2.4222,-0.16671 -4.328986,-1.51698 -0.921097,-0.65231 -1.801276,-1.18664 -1.955951,-1.18745 -0.621145,-0.003 -1.615307,-0.58315 -2.464929,-1.43791 -0.49315,-0.49612 -1.064957,-0.90463 -1.270685,-0.90777 -0.711542,-0.0103 -1.76995,-0.96656 -2.689671,-2.4286 -0.507909,-0.80743 -1.005082,-1.468 -1.104837,-1.468 -0.485638,0 -1.442456,-0.96639 -1.83513,-1.85347 -0.241435,-0.54541 -0.588152,-1.06245 -0.770478,-1.14895 -0.460738,-0.21863 -0.965259,-1.81244 -1.214909,-3.83797 -0.174595,-1.41659 -0.277074,-1.7342 -0.598441,-1.8548 -0.588051,-0.22065 -1.439772,-1.829794 -1.556815,-2.941247 -0.05682,-0.539634 -0.190846,-1.420911 -0.297832,-1.9584 -0.156629,-0.786919 -0.137325,-1.284787 0.09911,-2.556207 l 0.29364,-1.578944 -0.460112,-0.817475 c -0.420524,-0.747135 -0.453033,-0.965275 -0.377885,-2.535453 0.06736,-1.407419 0.02391,-1.82565 -0.240362,-2.313537 -0.435887,-0.804758 -0.411854,-1.193122 0.229474,-3.707085 0.515942,-2.022473 0.553244,-2.393781 0.570267,-5.676148 0.01983,-3.82061 0.0893,-4.193149 1.068374,-5.726543 l 0.583368,-0.913664 -0.947082,-1.09552 c -1.897016,-2.194323 -2.87151,-5.249804 -3.006246,-9.425935 -0.08001,-2.480003 -0.124923,-2.766576 -0.503272,-3.211506 -0.682995,-0.803163 -1.087674,-2.345447 -1.452491,-5.535654 -0.189957,-1.661123 -0.345377,-3.262378 -0.345377,-3.558356 0,-0.29598 -0.390446,-1.794261 -0.867665,-3.329495 -1.004442,-3.231389 -1.3945956,-5.248935 -1.3945956,-7.211716 0,-1.248941 -0.079947,-1.551411 -0.7591753,-2.872088 C 6.9298783,29.830988 3.8974942,22.133794 2.9485609,18.508568 1.4843493,12.914837 0.92589514,7.7285405 1.4554141,4.6419039 1.9898164,1.5267798 2.5100224,1.1305909 5.8137303,1.3226004 9.8661684,1.5581289 15.409678,3.3790492 19.56938,5.8410398 28.85661,11.337829 36.90704,19.466142 44.897243,31.413949 c 5.000567,7.477372 8.166016,12.978001 11.798319,20.502024 1.292519,2.677347 1.699002,3.358175 1.816913,3.043191 0.1115,-0.297842 -0.03686,-0.711927 -0.557944,-1.557005 -0.487414,-0.790529 -0.709831,-1.38571 -0.709831,-1.89954 0,-0.754621 0.510942,-1.798715 1.136225,-2.321847 0.326764,-0.273379 0.325185,-0.320449 -0.07326,-2.187584 -0.891277,-4.176549 -3.80361,-12.769025 -6.025581,-17.777716 -1.211626,-2.731219 -3.372278,-6.572131 -4.980819,-8.854239 -1.002896,-1.422853 -1.538843,-1.965731 -2.40878,-2.439929 -1.673692,-0.912319 -2.637538,-2.608493 -1.611041,-2.835099 0.541918,-0.119634 1.360127,0.606942 2.539716,2.255271 0.577696,0.807253 1.553476,2.170163 2.168393,3.028678 3.753195,5.240051 8.265071,16.257859 10.66298,26.038531 l 0.579657,2.364331 0.85724,-0.04514 0.857243,-0.04503 0.562795,-2.356455 c 1.343178,-5.623995 3.358329,-11.499961 5.91275,-17.240988 1.523666,-3.424421 3.866769,-7.781681 4.827298,-8.9769 0.313484,-0.390078 1.141224,-1.485866 1.83943,-2.435107 0.698205,-0.949239 1.519225,-1.930747 1.824495,-2.18115 0.739501,-0.606588 1.343545,-0.597738 1.343545,0.01966 0,0.706353 -0.70141,1.562164 -1.85025,2.257548 -1.440313,0.871804 -2.710915,2.485601 -4.748246,6.03076 -2.066934,3.596664 -3.120514,5.895924 -4.97935,10.866554 -2.436034,6.514074 -4.614931,14.142653 -4.111163,14.393693 0.405933,0.202294 1.106635,1.202474 1.257207,1.79455 0.215016,0.845469 -0.162661,2.156246 -0.854822,2.966774 -0.41289,0.483497 -0.496267,0.718978 -0.360803,1.019037 0.149516,0.331183 0.226334,0.291811 0.507633,-0.260157 0.182297,-0.357711 1.261404,-2.523515 2.398005,-4.812882 7.765102,-15.640607 17.661373,-29.369313 26.912331,-37.334405 2.556314,-2.20099 6.647381,-5.1386362 9.409142,-6.7563753 4.10783,-2.4061805 10.60161,-4.4245938 14.24332,-4.427139 2.09187,-0.00192 2.74642,0.3797565 3.29786,1.9207363 0.34053,0.951485 0.38152,1.4440516 0.37054,4.4518831 -0.014,3.8057749 -0.38964,6.4199739 -1.55936,10.8487649 -0.98147,3.716048 -4.48441,12.534963 -6.19373,15.59319 -0.63558,1.137126 -0.67454,1.30722 -0.67454,2.945923 0,1.966801 -0.51372,4.558151 -1.46126,7.371112 -0.43197,1.282354 -0.66517,2.481062 -0.87138,4.479161 -0.15483,1.500528 -0.36774,3.313591 -0.4731,4.029013 -0.22005,1.494076 -0.88948,3.380027 -1.27909,3.603545 -0.19868,0.113984 -0.26641,0.564336 -0.26866,1.786532 -0.005,2.136643 -0.40853,4.933241 -0.95532,6.604084 -0.50509,1.543387 -1.61553,3.514091 -2.5508,4.526965 l -0.6485,0.702266 0.4924,0.544218 c 0.27078,0.299322 0.66089,1.064654 0.86686,1.700751 0.32681,1.009226 0.37004,1.549584 0.33949,4.242134 -0.0318,2.808873 0.009,3.260561 0.4504,5.036763 0.66202,2.661029 0.73362,3.699227 0.31765,4.605869 -0.26248,0.572127 -0.30632,0.949371 -0.2056,1.767953 0.16653,1.352905 0.0343,2.185423 -0.4784,3.010904 -0.40294,0.648899 -0.40763,0.70392 -0.15159,1.788758 0.30066,1.273947 0.34901,3.025979 0.0901,3.265171 -0.0957,0.08836 -0.17403,0.637605 -0.17403,1.220384 0,1.371419 -0.54892,2.689238 -1.38616,3.327776 -0.59681,0.45518 -0.66567,0.62015 -0.77543,1.85667 -0.0662,0.74641 -0.23237,1.75773 -0.36922,2.24735 -0.35589,1.2734 -2.509716,4.38524 -3.189737,4.60855 -0.347431,0.11402 -0.784334,0.59786 -1.181629,1.30841 -0.870362,1.55662 -1.458448,2.15278 -2.538452,2.57333 -0.509396,0.19836 -1.279525,0.71717 -1.711395,1.15288 -0.431865,0.43573 -1.172959,0.92856 -1.646874,1.09522 -0.47391,0.16655 -1.648994,0.81744 -2.611297,1.44633 -2.087017,1.36376 -3.431452,1.82456 -4.362702,1.49534 -0.444731,-0.15729 -1.091365,-0.1193 -1.973132,0.11577 -1.821522,0.4854 -3.123558,0.24686 -4.67955,-0.85732 -0.703797,-0.49944 -1.408578,-0.91066 -1.566135,-0.9138 -0.549047,-0.0103 -1.750502,-1.00336 -2.552152,-2.10802 -0.444007,-0.61188 -1.303019,-2.23043 -1.90892,-3.59684 -1.5238,-3.43642 -4.493668,-11.52834 -5.494892,-14.971852 -0.675226,-2.322263 -2.422616,-9.468807 -3.244139,-13.26796 -0.127844,-0.591215 -0.194578,0.386547 -0.275228,4.032427 -0.179788,8.127961 -1.033824,14.148265 -1.933814,13.631965 -0.818632,-0.46965 -1.555555,-6.261042 -1.779593,-13.985749 l -0.119664,-4.12602 -1.163237,5.03657 c -1.937414,8.388663 -2.565751,10.452537 -5.716761,18.777539 -2.681356,7.08422 -4.410484,10.05218 -6.099537,10.46945 -0.344313,0.085 -0.978416,0.42708 -1.409122,0.76008 -1.792981,1.3862 -3.361957,1.69333 -5.481623,1.07309 z"
       id="path659" />
  </g>
</svg>
